<svg width="1170" height="256" viewBox="0 0 1170 256" fill="none" xmlns="http://www.w3.org/2000/svg">
<g clip-path="url(#clip0_290_1993)">
<path d="M1141 0H29C12.9837 0 0 12.9837 0 29V227C0 243.016 12.9837 256 29 256H1141C1157.02 256 1170 243.016 1170 227V29C1170 12.9837 1157.02 0 1141 0Z" fill="#962E40"/>
<path d="M0 142.44L9.75 156.717C19.5 170.994 39 199.548 58.5 180.542C78 161.179 97.5 95.1479 117 80.6029C136.5 66.5939 156 104.071 175.5 118.616C195 132.625 214.5 123.702 234 118.616C253.5 113.887 273 113.887 292.5 104.339C312 95.1479 331.5 75.5169 351 99.6099C370.5 123.703 390 189.733 409.5 223.373C429 256.656 448.5 256.656 468 228.102C487.5 199.548 507 142.44 526.5 113.886C546 85.3319 565.5 85.3319 585 75.7859C604.5 66.5949 624 46.9639 643.5 71.0569C663 95.1499 682.5 161.181 702 194.821C721.5 228.104 741 228.104 760.5 199.55C780 170.996 799.5 113.888 819 94.8819C838.5 75.5189 858 95.1499 877.5 123.436C897 152.258 916.5 189.736 936 218.557C955.5 246.843 975 266.474 994.5 232.834C1014 199.551 1033.5 113.889 1053 104.341C1072.5 95.1499 1092 161.181 1111.5 161.449C1131 161.181 1150.5 95.1489 1160.25 61.5099L1170 28.2239L1143 1H36L2 21.5L0 142.44Z" fill="url(#paint0_linear_290_1993)"/>
</g>
<defs>
<linearGradient id="paint0_linear_290_1993" x1="592.02" y1="265.862" x2="591.697" y2="-0.33819" gradientUnits="userSpaceOnUse">
<stop stop-color="#A33448"/>
<stop offset="0.997917" stop-color="#962E40"/>
</linearGradient>
<clipPath id="clip0_290_1993">
<rect width="1170" height="256" fill="white"/>
</clipPath>
</defs>
</svg>
