<svg width="495" height="639" viewBox="0 0 495 639" fill="none" xmlns="http://www.w3.org/2000/svg">
<g clip-path="url(#clip0_290_1864)">
<path d="M175.536 0C-0.809052 0 242.602 208.923 86.9429 319.3C-68.7161 429.677 -0.809052 638.6 175.536 638.6C351.881 638.6 494.836 495.645 494.836 319.3C494.836 142.955 351.88 0 175.536 0Z" fill="#962E40"/>
<path opacity="0.3" d="M280.836 620.5C326.836 604.5 354.836 585.5 382.336 562.5C364.623 491.884 315.807 384.597 407.893 319.3C563.552 208.923 457.181 167 280.836 167C255.017 167 172.579 147.39 141.336 180.5C141.336 219 146.836 260 108.336 302.5C69.8359 334.5 60.3359 333.5 25.8359 383C25.8359 559.345 104.492 620.5 280.836 620.5Z" fill="url(#paint0_linear_290_1864)"/>
</g>
<defs>
<linearGradient id="paint0_linear_290_1864" x1="247.418" y1="638.6" x2="230.836" y2="173" gradientUnits="userSpaceOnUse">
<stop stop-color="#C47B88"/>
<stop offset="1" stop-color="#962E40"/>
</linearGradient>
<clipPath id="clip0_290_1864">
<rect width="494.836" height="638.601" fill="white" transform="matrix(-1 0 0 1 494.836 0)"/>
</clipPath>
</defs>
</svg>
